<mxfile host="app.diagrams.net" modified="2023-09-03T19:26:20.747Z" agent="Mozilla/5.0 (Windows NT 10.0; Win64; x64) AppleWebKit/537.36 (KHTML, like Gecko) Chrome/116.0.0.0 Safari/537.36" etag="K0ZcmCroV66TCRba5g0K" version="21.7.2" type="github">
  <diagram name="PÃ¡gina-1" id="yWGLrWYSczdTiaF9Wtc3">
    <mxGraphModel dx="4797" dy="2170" grid="1" gridSize="10" guides="1" tooltips="1" connect="1" arrows="1" fold="1" page="1" pageScale="1" pageWidth="827" pageHeight="1169" background="none" math="0" shadow="0">
      <root>
        <mxCell id="0" />
        <mxCell id="1" parent="0" />
        <mxCell id="3GVqCLC3AOpg88e1xVN--2" value="&lt;font style=&quot;font-size: 38px;&quot;&gt;&lt;b&gt;&lt;i&gt;&lt;u&gt;&lt;font style=&quot;font-size: 38px;&quot;&gt;Contract:&amp;nbsp;&lt;/font&gt;LivepeerGovernor&lt;/u&gt;&lt;/i&gt;&lt;/b&gt;&lt;/font&gt;" style="text;html=1;strokeColor=none;fillColor=none;align=center;verticalAlign=middle;whiteSpace=wrap;rounded=0;fontSize=20;fontFamily=Architects Daughter;" parent="1" vertex="1">
          <mxGeometry x="197" y="150" width="486" height="80" as="geometry" />
        </mxCell>
        <mxCell id="M4fMpMwqK3yh5M_hbPdH-149" value="&lt;font color=&quot;#000000&quot; style=&quot;font-size: 30px;&quot;&gt;&lt;b&gt;Initialization&lt;/b&gt;&lt;/font&gt;" style="text;html=1;strokeColor=#005700;fillColor=#008a00;align=center;verticalAlign=middle;whiteSpace=wrap;rounded=0;fontSize=20;fontFamily=Architects Daughter;sketch=1;curveFitting=1;jiggle=2;fontColor=#ffffff;" vertex="1" parent="1">
          <mxGeometry x="-680" y="370" width="300" height="90" as="geometry" />
        </mxCell>
        <mxCell id="M4fMpMwqK3yh5M_hbPdH-152" value="" style="shape=flexArrow;endArrow=classic;html=1;rounded=0;sketch=1;hachureGap=4;jiggle=2;curveFitting=1;fontFamily=Architects Daughter;fontSource=https%3A%2F%2Ffonts.googleapis.com%2Fcss%3Ffamily%3DArchitects%2BDaughter;fontSize=16;fillColor=#e51400;strokeColor=#B20000;" edge="1" parent="1">
          <mxGeometry width="50" height="50" relative="1" as="geometry">
            <mxPoint x="-350" y="414.2900000000001" as="sourcePoint" />
            <mxPoint x="-190" y="414.2900000000001" as="targetPoint" />
          </mxGeometry>
        </mxCell>
        <mxCell id="M4fMpMwqK3yh5M_hbPdH-325" value="" style="shape=image;html=1;verticalLabelPosition=bottom;verticalAlign=top;imageAspect=0;image=img/clipart/Gear_128x128.png;sketch=1;hachureGap=4;jiggle=2;curveFitting=1;fontFamily=Architects Daughter;fontSource=https%3A%2F%2Ffonts.googleapis.com%2Fcss%3Ffamily%3DArchitects%2BDaughter;fontSize=20;" vertex="1" parent="1">
          <mxGeometry x="1250" y="1830" width="100" height="95" as="geometry" />
        </mxCell>
        <mxCell id="M4fMpMwqK3yh5M_hbPdH-561" value="" style="edgeStyle=orthogonalEdgeStyle;rounded=0;sketch=1;hachureGap=4;jiggle=2;curveFitting=1;orthogonalLoop=1;jettySize=auto;html=1;fontFamily=Architects Daughter;fontSource=https%3A%2F%2Ffonts.googleapis.com%2Fcss%3Ffamily%3DArchitects%2BDaughter;fontSize=16;" edge="1" parent="1" source="M4fMpMwqK3yh5M_hbPdH-326" target="M4fMpMwqK3yh5M_hbPdH-560">
          <mxGeometry relative="1" as="geometry" />
        </mxCell>
        <mxCell id="M4fMpMwqK3yh5M_hbPdH-326" value="&lt;b&gt;Address of the contract managing votes&lt;/b&gt;" style="rounded=0;whiteSpace=wrap;html=1;sketch=1;hachureGap=4;jiggle=2;curveFitting=1;fontFamily=Architects Daughter;fontSource=https%3A%2F%2Ffonts.googleapis.com%2Fcss%3Ffamily%3DArchitects%2BDaughter;fontSize=20;fillColor=#B5739D;strokeColor=#00FF00;" vertex="1" parent="1">
          <mxGeometry x="218.25" y="1355.31" width="220" height="78.75" as="geometry" />
        </mxCell>
        <mxCell id="M4fMpMwqK3yh5M_hbPdH-330" value="&lt;b&gt;Contract handling governance votes&lt;/b&gt;" style="whiteSpace=wrap;html=1;shape=mxgraph.basic.cloud_rect;sketch=1;hachureGap=4;jiggle=2;curveFitting=1;fontFamily=Architects Daughter;fontSource=https%3A%2F%2Ffonts.googleapis.com%2Fcss%3Ffamily%3DArchitects%2BDaughter;fontSize=20;fillColor=#e3c800;fontColor=#000000;strokeColor=#B09500;" vertex="1" parent="1">
          <mxGeometry x="815.5" y="1020.01" width="180" height="110" as="geometry" />
        </mxCell>
        <mxCell id="M4fMpMwqK3yh5M_hbPdH-360" value="&lt;font style=&quot;font-size: 81px;&quot;&gt;í ½í³„&lt;/font&gt;" style="text;html=1;strokeColor=none;fillColor=none;align=center;verticalAlign=middle;whiteSpace=wrap;rounded=0;fontSize=20;fontFamily=Architects Daughter;" vertex="1" parent="1">
          <mxGeometry x="-320" y="317" width="95" height="93" as="geometry" />
        </mxCell>
        <mxCell id="M4fMpMwqK3yh5M_hbPdH-481" value="configure the governance system" style="label;whiteSpace=wrap;html=1;image=img/clipart/Gear_128x128.png;sketch=1;hachureGap=4;jiggle=2;curveFitting=1;fontFamily=Architects Daughter;fontSource=https%3A%2F%2Ffonts.googleapis.com%2Fcss%3Ffamily%3DArchitects%2BDaughter;fontSize=20;align=center;fillColor=#e3c800;strokeColor=#B09500;fontColor=#000000;" vertex="1" parent="1">
          <mxGeometry x="1390" y="273.75" width="200" height="97.5" as="geometry" />
        </mxCell>
        <mxCell id="M4fMpMwqK3yh5M_hbPdH-484" value="&lt;b&gt;keep the address of the &quot;BondingVotes&quot; contract up-to-date if it ever changes in the controller&lt;/b&gt;" style="verticalAlign=middle;align=center;spacingTop=8;spacingLeft=2;spacingRight=12;shape=cube;size=10;direction=south;fontStyle=4;html=1;whiteSpace=wrap;sketch=1;hachureGap=4;jiggle=2;curveFitting=1;fontFamily=Architects Daughter;fontSource=https%3A%2F%2Ffonts.googleapis.com%2Fcss%3Ffamily%3DArchitects%2BDaughter;fontSize=20;fillColor=#B5739D;strokeColor=#00FF00;rounded=0;" vertex="1" parent="1">
          <mxGeometry x="696" y="1275" width="284" height="190" as="geometry" />
        </mxCell>
        <mxCell id="M4fMpMwqK3yh5M_hbPdH-527" style="edgeStyle=orthogonalEdgeStyle;rounded=0;sketch=1;hachureGap=4;jiggle=2;curveFitting=1;orthogonalLoop=1;jettySize=auto;html=1;exitX=1;exitY=0.5;exitDx=0;exitDy=0;fontFamily=Architects Daughter;fontSource=https%3A%2F%2Ffonts.googleapis.com%2Fcss%3Ffamily%3DArchitects%2BDaughter;fontSize=16;" edge="1" parent="1" source="M4fMpMwqK3yh5M_hbPdH-492">
          <mxGeometry relative="1" as="geometry">
            <mxPoint x="1370" y="322.33333333333337" as="targetPoint" />
          </mxGeometry>
        </mxCell>
        <mxCell id="M4fMpMwqK3yh5M_hbPdH-492" value="These parameters are essential&lt;font color=&quot;#00ff00&quot;&gt;&lt;b&gt;&lt;br&gt;&lt;/b&gt;&lt;/font&gt;" style="text;html=1;strokeColor=none;fillColor=none;align=center;verticalAlign=middle;whiteSpace=wrap;rounded=0;fontSize=20;fontFamily=Architects Daughter;" vertex="1" parent="1">
          <mxGeometry x="1169" y="280" width="131" height="85" as="geometry" />
        </mxCell>
        <mxCell id="M4fMpMwqK3yh5M_hbPdH-535" value="" style="edgeStyle=orthogonalEdgeStyle;rounded=0;sketch=1;hachureGap=4;jiggle=2;curveFitting=1;orthogonalLoop=1;jettySize=auto;html=1;fontFamily=Architects Daughter;fontSource=https%3A%2F%2Ffonts.googleapis.com%2Fcss%3Ffamily%3DArchitects%2BDaughter;fontSize=16;" edge="1" parent="1" source="M4fMpMwqK3yh5M_hbPdH-496" target="M4fMpMwqK3yh5M_hbPdH-534">
          <mxGeometry relative="1" as="geometry" />
        </mxCell>
        <mxCell id="M4fMpMwqK3yh5M_hbPdH-496" value="&lt;b&gt;The denominator of the quorum&lt;/b&gt;" style="whiteSpace=wrap;html=1;shape=mxgraph.basic.cloud_rect;sketch=1;hachureGap=4;jiggle=2;curveFitting=1;fontFamily=Architects Daughter;fontSource=https%3A%2F%2Ffonts.googleapis.com%2Fcss%3Ffamily%3DArchitects%2BDaughter;fontSize=20;fillColor=#e3c800;fontColor=#000000;strokeColor=#B09500;" vertex="1" parent="1">
          <mxGeometry x="-180" y="718.75" width="285.5" height="61.25" as="geometry" />
        </mxCell>
        <mxCell id="M4fMpMwqK3yh5M_hbPdH-498" value="&lt;font color=&quot;#00ff00&quot;&gt;&lt;b&gt;TO&lt;br&gt;&lt;/b&gt;&lt;/font&gt;" style="text;html=1;strokeColor=none;fillColor=none;align=center;verticalAlign=middle;whiteSpace=wrap;rounded=0;fontSize=20;fontFamily=Architects Daughter;" vertex="1" parent="1">
          <mxGeometry x="1300" y="280" width="60" height="40" as="geometry" />
        </mxCell>
        <mxCell id="M4fMpMwqK3yh5M_hbPdH-515" style="edgeStyle=orthogonalEdgeStyle;rounded=0;sketch=1;hachureGap=4;jiggle=2;curveFitting=1;orthogonalLoop=1;jettySize=auto;html=1;exitX=1;exitY=0.5;exitDx=0;exitDy=0;fontFamily=Architects Daughter;fontSource=https%3A%2F%2Ffonts.googleapis.com%2Fcss%3Ffamily%3DArchitects%2BDaughter;fontSize=16;" edge="1" parent="1" source="M4fMpMwqK3yh5M_hbPdH-499">
          <mxGeometry relative="1" as="geometry">
            <mxPoint x="390" y="416" as="targetPoint" />
          </mxGeometry>
        </mxCell>
        <mxCell id="M4fMpMwqK3yh5M_hbPdH-499" value="&lt;b&gt;&lt;font style=&quot;font-size: 25px;&quot;&gt;The contract is initialized with several parameters&lt;/font&gt;&lt;/b&gt;" style="text;html=1;strokeColor=none;fillColor=none;align=center;verticalAlign=middle;whiteSpace=wrap;rounded=0;fontSize=20;fontFamily=Architects Daughter;" vertex="1" parent="1">
          <mxGeometry x="-170" y="375.31" width="305.5" height="79.38" as="geometry" />
        </mxCell>
        <mxCell id="M4fMpMwqK3yh5M_hbPdH-502" value="&lt;font color=&quot;#00ff00&quot;&gt;&lt;b&gt;SUCH AS&lt;br&gt;&lt;/b&gt;&lt;/font&gt;" style="text;html=1;strokeColor=none;fillColor=none;align=center;verticalAlign=middle;whiteSpace=wrap;rounded=0;fontSize=20;fontFamily=Architects Daughter;" vertex="1" parent="1">
          <mxGeometry x="200" y="370" width="131" height="40" as="geometry" />
        </mxCell>
        <mxCell id="M4fMpMwqK3yh5M_hbPdH-509" value="" style="endArrow=block;endSize=16;endFill=0;html=1;rounded=0;sketch=1;hachureGap=4;jiggle=2;curveFitting=1;fontFamily=Architects Daughter;fontSource=https%3A%2F%2Ffonts.googleapis.com%2Fcss%3Ffamily%3DArchitects%2BDaughter;fontSize=16;exitX=1;exitY=0.5;exitDx=0;exitDy=0;exitPerimeter=0;entryX=0;entryY=0.5;entryDx=0;entryDy=0;" edge="1" parent="1" target="M4fMpMwqK3yh5M_hbPdH-492">
          <mxGeometry width="160" relative="1" as="geometry">
            <mxPoint x="1010" y="273.1599999999999" as="sourcePoint" />
            <mxPoint x="1150" y="273.09" as="targetPoint" />
          </mxGeometry>
        </mxCell>
        <mxCell id="M4fMpMwqK3yh5M_hbPdH-513" value="" style="shape=image;html=1;verticalLabelPosition=bottom;verticalAlign=top;imageAspect=0;image=img/clipart/Gear_128x128.png;sketch=1;hachureGap=4;jiggle=2;curveFitting=1;fontFamily=Architects Daughter;fontSource=https%3A%2F%2Ffonts.googleapis.com%2Fcss%3Ffamily%3DArchitects%2BDaughter;fontSize=20;" vertex="1" parent="1">
          <mxGeometry x="1110" y="415" width="100" height="95" as="geometry" />
        </mxCell>
        <mxCell id="M4fMpMwqK3yh5M_hbPdH-514" value="" style="html=1;shadow=0;dashed=0;align=center;verticalAlign=middle;shape=mxgraph.arrows2.arrow;dy=0.6;dx=40;direction=south;notch=0;sketch=1;hachureGap=4;jiggle=2;curveFitting=1;fontFamily=Architects Daughter;fontSource=https%3A%2F%2Ffonts.googleapis.com%2Fcss%3Ffamily%3DArchitects%2BDaughter;fontSize=20;fillColor=#f0a30a;fontColor=#000000;strokeColor=#BD7000;" vertex="1" parent="1">
          <mxGeometry x="-567.5" y="490" width="75" height="185" as="geometry" />
        </mxCell>
        <mxCell id="M4fMpMwqK3yh5M_hbPdH-524" style="edgeStyle=orthogonalEdgeStyle;rounded=0;sketch=1;hachureGap=4;jiggle=2;curveFitting=1;orthogonalLoop=1;jettySize=auto;html=1;exitX=0;exitY=0;exitDx=30;exitDy=0;exitPerimeter=0;entryX=0.381;entryY=0.996;entryDx=0;entryDy=0;entryPerimeter=0;fontFamily=Architects Daughter;fontSource=https%3A%2F%2Ffonts.googleapis.com%2Fcss%3Ffamily%3DArchitects%2BDaughter;fontSize=16;" edge="1" parent="1" source="M4fMpMwqK3yh5M_hbPdH-516" target="M4fMpMwqK3yh5M_hbPdH-519">
          <mxGeometry relative="1" as="geometry" />
        </mxCell>
        <mxCell id="M4fMpMwqK3yh5M_hbPdH-516" value="&lt;b&gt;initial voting delay&lt;/b&gt;" style="verticalAlign=middle;align=center;spacingTop=8;spacingLeft=2;spacingRight=12;shape=cube;size=10;direction=south;fontStyle=4;html=1;whiteSpace=wrap;sketch=1;hachureGap=4;jiggle=2;curveFitting=1;fontFamily=Architects Daughter;fontSource=https%3A%2F%2Ffonts.googleapis.com%2Fcss%3Ffamily%3DArchitects%2BDaughter;fontSize=20;fillColor=#B5739D;strokeColor=#00FF00;rounded=0;" vertex="1" parent="1">
          <mxGeometry x="393" y="238.76" width="290" height="70" as="geometry" />
        </mxCell>
        <mxCell id="M4fMpMwqK3yh5M_hbPdH-523" style="edgeStyle=orthogonalEdgeStyle;rounded=0;sketch=1;hachureGap=4;jiggle=2;curveFitting=1;orthogonalLoop=1;jettySize=auto;html=1;exitX=0;exitY=0;exitDx=40;exitDy=290;exitPerimeter=0;entryX=0;entryY=0;entryDx=40;entryDy=290;entryPerimeter=0;fontFamily=Architects Daughter;fontSource=https%3A%2F%2Ffonts.googleapis.com%2Fcss%3Ffamily%3DArchitects%2BDaughter;fontSize=16;" edge="1" parent="1" source="M4fMpMwqK3yh5M_hbPdH-517" target="M4fMpMwqK3yh5M_hbPdH-516">
          <mxGeometry relative="1" as="geometry" />
        </mxCell>
        <mxCell id="M4fMpMwqK3yh5M_hbPdH-525" style="edgeStyle=orthogonalEdgeStyle;rounded=0;sketch=1;hachureGap=4;jiggle=2;curveFitting=1;orthogonalLoop=1;jettySize=auto;html=1;exitX=0;exitY=0;exitDx=30;exitDy=0;exitPerimeter=0;entryX=0.433;entryY=1.011;entryDx=0;entryDy=0;entryPerimeter=0;fontFamily=Architects Daughter;fontSource=https%3A%2F%2Ffonts.googleapis.com%2Fcss%3Ffamily%3DArchitects%2BDaughter;fontSize=16;" edge="1" parent="1" source="M4fMpMwqK3yh5M_hbPdH-517" target="M4fMpMwqK3yh5M_hbPdH-520">
          <mxGeometry relative="1" as="geometry" />
        </mxCell>
        <mxCell id="M4fMpMwqK3yh5M_hbPdH-517" value="&lt;b&gt;initial voting period&lt;/b&gt;" style="verticalAlign=middle;align=center;spacingTop=8;spacingLeft=2;spacingRight=12;shape=cube;size=10;direction=south;fontStyle=4;html=1;whiteSpace=wrap;sketch=1;hachureGap=4;jiggle=2;curveFitting=1;fontFamily=Architects Daughter;fontSource=https%3A%2F%2Ffonts.googleapis.com%2Fcss%3Ffamily%3DArchitects%2BDaughter;fontSize=20;fillColor=#B5739D;strokeColor=#00FF00;rounded=0;" vertex="1" parent="1">
          <mxGeometry x="393" y="340" width="290" height="70" as="geometry" />
        </mxCell>
        <mxCell id="M4fMpMwqK3yh5M_hbPdH-521" style="edgeStyle=orthogonalEdgeStyle;rounded=0;sketch=1;hachureGap=4;jiggle=2;curveFitting=1;orthogonalLoop=1;jettySize=auto;html=1;exitX=0;exitY=0;exitDx=30;exitDy=0;exitPerimeter=0;entryX=0;entryY=0;entryDx=70;entryDy=150;entryPerimeter=0;fontFamily=Architects Daughter;fontSource=https%3A%2F%2Ffonts.googleapis.com%2Fcss%3Ffamily%3DArchitects%2BDaughter;fontSize=16;" edge="1" parent="1" source="M4fMpMwqK3yh5M_hbPdH-518" target="M4fMpMwqK3yh5M_hbPdH-520">
          <mxGeometry relative="1" as="geometry" />
        </mxCell>
        <mxCell id="M4fMpMwqK3yh5M_hbPdH-522" style="edgeStyle=orthogonalEdgeStyle;rounded=0;sketch=1;hachureGap=4;jiggle=2;curveFitting=1;orthogonalLoop=1;jettySize=auto;html=1;exitX=0;exitY=0;exitDx=40;exitDy=290;exitPerimeter=0;entryX=0;entryY=0;entryDx=40;entryDy=290;entryPerimeter=0;fontFamily=Architects Daughter;fontSource=https%3A%2F%2Ffonts.googleapis.com%2Fcss%3Ffamily%3DArchitects%2BDaughter;fontSize=16;" edge="1" parent="1" source="M4fMpMwqK3yh5M_hbPdH-518" target="M4fMpMwqK3yh5M_hbPdH-517">
          <mxGeometry relative="1" as="geometry" />
        </mxCell>
        <mxCell id="M4fMpMwqK3yh5M_hbPdH-518" value="&lt;b&gt; initial proposal threshold&lt;/b&gt;" style="verticalAlign=middle;align=center;spacingTop=8;spacingLeft=2;spacingRight=12;shape=cube;size=10;direction=south;fontStyle=4;html=1;whiteSpace=wrap;sketch=1;hachureGap=4;jiggle=2;curveFitting=1;fontFamily=Architects Daughter;fontSource=https%3A%2F%2Ffonts.googleapis.com%2Fcss%3Ffamily%3DArchitects%2BDaughter;fontSize=20;fillColor=#B5739D;strokeColor=#00FF00;rounded=0;" vertex="1" parent="1">
          <mxGeometry x="393" y="440" width="290" height="70" as="geometry" />
        </mxCell>
        <mxCell id="M4fMpMwqK3yh5M_hbPdH-519" value="&lt;b&gt; initial quorum&lt;/b&gt;" style="verticalAlign=middle;align=center;spacingTop=8;spacingLeft=2;spacingRight=12;shape=cube;size=10;direction=south;fontStyle=4;html=1;whiteSpace=wrap;sketch=1;hachureGap=4;jiggle=2;curveFitting=1;fontFamily=Architects Daughter;fontSource=https%3A%2F%2Ffonts.googleapis.com%2Fcss%3Ffamily%3DArchitects%2BDaughter;fontSize=20;fillColor=#B5739D;strokeColor=#00FF00;rounded=0;" vertex="1" parent="1">
          <mxGeometry x="720" y="238.76" width="290" height="70" as="geometry" />
        </mxCell>
        <mxCell id="M4fMpMwqK3yh5M_hbPdH-520" value="&lt;b&gt;quota&lt;/b&gt;" style="verticalAlign=middle;align=center;spacingTop=8;spacingLeft=2;spacingRight=12;shape=cube;size=10;direction=south;fontStyle=4;html=1;whiteSpace=wrap;sketch=1;hachureGap=4;jiggle=2;curveFitting=1;fontFamily=Architects Daughter;fontSource=https%3A%2F%2Ffonts.googleapis.com%2Fcss%3Ffamily%3DArchitects%2BDaughter;fontSize=20;fillColor=#B5739D;strokeColor=#00FF00;rounded=0;" vertex="1" parent="1">
          <mxGeometry x="720" y="340" width="290" height="70" as="geometry" />
        </mxCell>
        <mxCell id="M4fMpMwqK3yh5M_hbPdH-526" value="" style="endArrow=block;endSize=16;endFill=0;html=1;rounded=0;sketch=1;hachureGap=4;jiggle=2;curveFitting=1;fontFamily=Architects Daughter;fontSource=https%3A%2F%2Ffonts.googleapis.com%2Fcss%3Ffamily%3DArchitects%2BDaughter;fontSize=16;exitX=1;exitY=0.5;exitDx=0;exitDy=0;exitPerimeter=0;entryX=0;entryY=0.5;entryDx=0;entryDy=0;" edge="1" parent="1" target="M4fMpMwqK3yh5M_hbPdH-492">
          <mxGeometry width="160" relative="1" as="geometry">
            <mxPoint x="1010" y="375.3799999999999" as="sourcePoint" />
            <mxPoint x="1150" y="375.30999999999995" as="targetPoint" />
          </mxGeometry>
        </mxCell>
        <mxCell id="M4fMpMwqK3yh5M_hbPdH-529" value="&lt;font color=&quot;#000000&quot; style=&quot;font-size: 30px;&quot;&gt;&lt;b&gt;Function &quot;&lt;code style=&quot;border: 0px solid rgb(217, 217, 227); box-sizing: border-box; --tw-border-spacing-x: 0; --tw-border-spacing-y: 0; --tw-translate-x: 0; --tw-translate-y: 0; --tw-rotate: 0; --tw-skew-x: 0; --tw-skew-y: 0; --tw-scale-x: 1; --tw-scale-y: 1; --tw-pan-x: ; --tw-pan-y: ; --tw-pinch-zoom: ; --tw-scroll-snap-strictness: proximity; --tw-gradient-from-position: ; --tw-gradient-via-position: ; --tw-gradient-to-position: ; --tw-ordinal: ; --tw-slashed-zero: ; --tw-numeric-figure: ; --tw-numeric-spacing: ; --tw-numeric-fraction: ; --tw-ring-inset: ; --tw-ring-offset-width: 0px; --tw-ring-offset-color: #fff; --tw-ring-color: rgba(69,89,164,.5); --tw-ring-offset-shadow: 0 0 transparent; --tw-ring-shadow: 0 0 transparent; --tw-shadow: 0 0 transparent; --tw-shadow-colored: 0 0 transparent; --tw-blur: ; --tw-brightness: ; --tw-contrast: ; --tw-grayscale: ; --tw-hue-rotate: ; --tw-invert: ; --tw-saturate: ; --tw-sepia: ; --tw-drop-shadow: ; --tw-backdrop-blur: ; --tw-backdrop-brightness: ; --tw-backdrop-contrast: ; --tw-backdrop-grayscale: ; --tw-backdrop-hue-rotate: ; --tw-backdrop-invert: ; --tw-backdrop-opacity: ; --tw-backdrop-saturate: ; --tw-backdrop-sepia: ; font-family: &amp;quot;SÃ¶hne Mono&amp;quot;, Monaco, &amp;quot;Andale Mono&amp;quot;, &amp;quot;Ubuntu Mono&amp;quot;, monospace !important;&quot;&gt;quorumDenominator&quot;&lt;/code&gt;&lt;/b&gt;&lt;/font&gt;" style="text;html=1;strokeColor=#005700;fillColor=#008a00;align=center;verticalAlign=middle;whiteSpace=wrap;rounded=0;fontSize=20;fontFamily=Architects Daughter;sketch=1;curveFitting=1;jiggle=2;fontColor=#ffffff;" vertex="1" parent="1">
          <mxGeometry x="-680" y="704.38" width="300" height="90" as="geometry" />
        </mxCell>
        <mxCell id="M4fMpMwqK3yh5M_hbPdH-530" value="" style="html=1;shadow=0;dashed=0;align=center;verticalAlign=middle;shape=mxgraph.arrows2.arrow;dy=0.6;dx=40;direction=south;notch=0;sketch=1;hachureGap=4;jiggle=2;curveFitting=1;fontFamily=Architects Daughter;fontSource=https%3A%2F%2Ffonts.googleapis.com%2Fcss%3Ffamily%3DArchitects%2BDaughter;fontSize=20;fillColor=#f0a30a;fontColor=#000000;strokeColor=#BD7000;" vertex="1" parent="1">
          <mxGeometry x="-567.5" y="820" width="75" height="185" as="geometry" />
        </mxCell>
        <mxCell id="M4fMpMwqK3yh5M_hbPdH-531" value="" style="shape=flexArrow;endArrow=classic;html=1;rounded=0;sketch=1;hachureGap=4;jiggle=2;curveFitting=1;fontFamily=Architects Daughter;fontSource=https%3A%2F%2Ffonts.googleapis.com%2Fcss%3Ffamily%3DArchitects%2BDaughter;fontSize=16;fillColor=#e51400;strokeColor=#B20000;" edge="1" parent="1">
          <mxGeometry width="50" height="50" relative="1" as="geometry">
            <mxPoint x="-352.5" y="748.2700000000001" as="sourcePoint" />
            <mxPoint x="-192.5" y="748.2700000000001" as="targetPoint" />
          </mxGeometry>
        </mxCell>
        <mxCell id="M4fMpMwqK3yh5M_hbPdH-533" value="&lt;font color=&quot;#00ff00&quot;&gt;&lt;b&gt;RETURNS&lt;br&gt;&lt;/b&gt;&lt;/font&gt;" style="text;html=1;strokeColor=none;fillColor=none;align=center;verticalAlign=middle;whiteSpace=wrap;rounded=0;fontSize=20;fontFamily=Architects Daughter;" vertex="1" parent="1">
          <mxGeometry x="-350" y="704.38" width="131" height="40" as="geometry" />
        </mxCell>
        <mxCell id="M4fMpMwqK3yh5M_hbPdH-534" value="" style="shape=singleArrow;whiteSpace=wrap;html=1;arrowWidth=0.4;arrowSize=0.4;fontSize=20;fontFamily=Architects Daughter;fillColor=#B5739D;strokeColor=#00FF00;fontColor=default;sketch=1;hachureGap=4;jiggle=2;curveFitting=1;fontSource=https%3A%2F%2Ffonts.googleapis.com%2Fcss%3Ffamily%3DArchitects%2BDaughter;spacingTop=8;spacingLeft=2;spacingRight=12;fontStyle=4;rounded=0;" vertex="1" parent="1">
          <mxGeometry x="288.25" y="719.375" width="80" height="60" as="geometry" />
        </mxCell>
        <mxCell id="M4fMpMwqK3yh5M_hbPdH-536" value="&lt;font color=&quot;#00ff00&quot;&gt;&lt;b&gt;&lt;font style=&quot;font-size: 23px;&quot;&gt;which is set&lt;/font&gt;&lt;br&gt;&lt;/b&gt;&lt;/font&gt;" style="text;html=1;strokeColor=none;fillColor=none;align=center;verticalAlign=middle;whiteSpace=wrap;rounded=0;fontSize=20;fontFamily=Architects Daughter;" vertex="1" parent="1">
          <mxGeometry x="135.5" y="704.38" width="131" height="40" as="geometry" />
        </mxCell>
        <mxCell id="M4fMpMwqK3yh5M_hbPdH-538" style="edgeStyle=orthogonalEdgeStyle;rounded=0;sketch=1;hachureGap=4;jiggle=2;curveFitting=1;orthogonalLoop=1;jettySize=auto;html=1;exitX=1;exitY=0.5;exitDx=0;exitDy=0;fontFamily=Architects Daughter;fontSource=https%3A%2F%2Ffonts.googleapis.com%2Fcss%3Ffamily%3DArchitects%2BDaughter;fontSize=16;" edge="1" parent="1" source="M4fMpMwqK3yh5M_hbPdH-537">
          <mxGeometry relative="1" as="geometry">
            <mxPoint x="830" y="750" as="targetPoint" />
          </mxGeometry>
        </mxCell>
        <mxCell id="M4fMpMwqK3yh5M_hbPdH-537" value="MathUtils.PERC_DIVISOR" style="label;whiteSpace=wrap;html=1;image=img/clipart/Gear_128x128.png;sketch=1;hachureGap=4;jiggle=2;curveFitting=1;fontFamily=Architects Daughter;fontSource=https%3A%2F%2Ffonts.googleapis.com%2Fcss%3Ffamily%3DArchitects%2BDaughter;fontSize=20;align=center;fillColor=#e3c800;strokeColor=#B09500;fontColor=#000000;" vertex="1" parent="1">
          <mxGeometry x="388" y="719.69" width="300" height="59.38" as="geometry" />
        </mxCell>
        <mxCell id="M4fMpMwqK3yh5M_hbPdH-539" value="&lt;font color=&quot;#00ff00&quot;&gt;&lt;font style=&quot;font-size: 24px;&quot;&gt;&lt;b&gt;to ensure&lt;/b&gt;&lt;/font&gt;&lt;b&gt;&lt;br&gt;&lt;/b&gt;&lt;/font&gt;" style="text;html=1;strokeColor=none;fillColor=none;align=center;verticalAlign=middle;whiteSpace=wrap;rounded=0;fontSize=20;fontFamily=Architects Daughter;" vertex="1" parent="1">
          <mxGeometry x="696" y="704.38" width="131" height="40" as="geometry" />
        </mxCell>
        <mxCell id="M4fMpMwqK3yh5M_hbPdH-540" value="&lt;font style=&quot;font-size: 23px;&quot;&gt;The quorum numerator is a valid MathUtils fraction.&lt;/font&gt;&lt;font color=&quot;#00ff00&quot;&gt;&lt;b&gt;&lt;br&gt;&lt;/b&gt;&lt;/font&gt;" style="text;html=1;strokeColor=none;fillColor=none;align=center;verticalAlign=middle;whiteSpace=wrap;rounded=0;fontSize=20;fontFamily=Architects Daughter;" vertex="1" parent="1">
          <mxGeometry x="840" y="704.38" width="230" height="85" as="geometry" />
        </mxCell>
        <mxCell id="M4fMpMwqK3yh5M_hbPdH-541" value="&lt;font color=&quot;#000000&quot; style=&quot;font-size: 30px;&quot;&gt;&lt;b&gt;Function &quot;&lt;code style=&quot;border: 0px solid rgb(217, 217, 227); box-sizing: border-box; --tw-border-spacing-x: 0; --tw-border-spacing-y: 0; --tw-translate-x: 0; --tw-translate-y: 0; --tw-rotate: 0; --tw-skew-x: 0; --tw-skew-y: 0; --tw-scale-x: 1; --tw-scale-y: 1; --tw-pan-x: ; --tw-pan-y: ; --tw-pinch-zoom: ; --tw-scroll-snap-strictness: proximity; --tw-gradient-from-position: ; --tw-gradient-via-position: ; --tw-gradient-to-position: ; --tw-ordinal: ; --tw-slashed-zero: ; --tw-numeric-figure: ; --tw-numeric-spacing: ; --tw-numeric-fraction: ; --tw-ring-inset: ; --tw-ring-offset-width: 0px; --tw-ring-offset-color: #fff; --tw-ring-color: rgba(69,89,164,.5); --tw-ring-offset-shadow: 0 0 transparent; --tw-ring-shadow: 0 0 transparent; --tw-shadow: 0 0 transparent; --tw-shadow-colored: 0 0 transparent; --tw-blur: ; --tw-brightness: ; --tw-contrast: ; --tw-grayscale: ; --tw-hue-rotate: ; --tw-invert: ; --tw-saturate: ; --tw-sepia: ; --tw-drop-shadow: ; --tw-backdrop-blur: ; --tw-backdrop-brightness: ; --tw-backdrop-contrast: ; --tw-backdrop-grayscale: ; --tw-backdrop-hue-rotate: ; --tw-backdrop-invert: ; --tw-backdrop-opacity: ; --tw-backdrop-saturate: ; --tw-backdrop-sepia: ; font-family: &amp;quot;SÃ¶hne Mono&amp;quot;, Monaco, &amp;quot;Andale Mono&amp;quot;, &amp;quot;Ubuntu Mono&amp;quot;, monospace !important;&quot;&gt;votes&quot;&lt;/code&gt;&lt;/b&gt;&lt;/font&gt;" style="text;html=1;strokeColor=#005700;fillColor=#008a00;align=center;verticalAlign=middle;whiteSpace=wrap;rounded=0;fontSize=20;fontFamily=Architects Daughter;sketch=1;curveFitting=1;jiggle=2;fontColor=#ffffff;" vertex="1" parent="1">
          <mxGeometry x="-680" y="1030" width="300" height="90" as="geometry" />
        </mxCell>
        <mxCell id="M4fMpMwqK3yh5M_hbPdH-542" value="" style="shape=flexArrow;endArrow=classic;html=1;rounded=0;sketch=1;hachureGap=4;jiggle=2;curveFitting=1;fontFamily=Architects Daughter;fontSource=https%3A%2F%2Ffonts.googleapis.com%2Fcss%3Ffamily%3DArchitects%2BDaughter;fontSize=16;fillColor=#e51400;strokeColor=#B20000;" edge="1" parent="1">
          <mxGeometry width="50" height="50" relative="1" as="geometry">
            <mxPoint x="-364.5" y="1074.29" as="sourcePoint" />
            <mxPoint x="-204.5" y="1074.29" as="targetPoint" />
          </mxGeometry>
        </mxCell>
        <mxCell id="M4fMpMwqK3yh5M_hbPdH-543" value="&lt;font color=&quot;#00ff00&quot;&gt;&lt;b&gt;RETURNS&lt;br&gt;&lt;/b&gt;&lt;/font&gt;" style="text;html=1;strokeColor=none;fillColor=none;align=center;verticalAlign=middle;whiteSpace=wrap;rounded=0;fontSize=20;fontFamily=Architects Daughter;" vertex="1" parent="1">
          <mxGeometry x="-350" y="1030" width="131" height="40" as="geometry" />
        </mxCell>
        <mxCell id="M4fMpMwqK3yh5M_hbPdH-548" value="" style="edgeStyle=orthogonalEdgeStyle;rounded=0;sketch=1;hachureGap=4;jiggle=2;curveFitting=1;orthogonalLoop=1;jettySize=auto;html=1;fontFamily=Architects Daughter;fontSource=https%3A%2F%2Ffonts.googleapis.com%2Fcss%3Ffamily%3DArchitects%2BDaughter;fontSize=16;" edge="1" parent="1" source="M4fMpMwqK3yh5M_hbPdH-544" target="M4fMpMwqK3yh5M_hbPdH-547">
          <mxGeometry relative="1" as="geometry" />
        </mxCell>
        <mxCell id="M4fMpMwqK3yh5M_hbPdH-544" value="&lt;b&gt;The address of the contract that manages votes&lt;/b&gt;" style="whiteSpace=wrap;html=1;shape=mxgraph.basic.cloud_rect;sketch=1;hachureGap=4;jiggle=2;curveFitting=1;fontFamily=Architects Daughter;fontSource=https%3A%2F%2Ffonts.googleapis.com%2Fcss%3Ffamily%3DArchitects%2BDaughter;fontSize=20;fillColor=#e3c800;fontColor=#000000;strokeColor=#B09500;" vertex="1" parent="1">
          <mxGeometry x="-190" y="1044.38" width="285.5" height="61.25" as="geometry" />
        </mxCell>
        <mxCell id="M4fMpMwqK3yh5M_hbPdH-547" value="" style="shape=singleArrow;whiteSpace=wrap;html=1;arrowWidth=0.4;arrowSize=0.4;fontSize=20;fontFamily=Architects Daughter;fillColor=#B5739D;strokeColor=#00FF00;fontColor=default;sketch=1;hachureGap=4;jiggle=2;curveFitting=1;fontSource=https%3A%2F%2Ffonts.googleapis.com%2Fcss%3Ffamily%3DArchitects%2BDaughter;spacingTop=8;spacingLeft=2;spacingRight=12;fontStyle=4;rounded=0;" vertex="1" parent="1">
          <mxGeometry x="278.25" y="1045.005" width="80" height="60" as="geometry" />
        </mxCell>
        <mxCell id="M4fMpMwqK3yh5M_hbPdH-549" value="&lt;font color=&quot;#00ff00&quot;&gt;&lt;font style=&quot;font-size: 23px;&quot;&gt;&lt;b&gt;In this case&lt;/b&gt;&lt;/font&gt;&lt;b&gt;&lt;br&gt;&lt;/b&gt;&lt;/font&gt;" style="text;html=1;strokeColor=none;fillColor=none;align=center;verticalAlign=middle;whiteSpace=wrap;rounded=0;fontSize=20;fontFamily=Architects Daughter;" vertex="1" parent="1">
          <mxGeometry x="130" y="1030" width="131" height="40" as="geometry" />
        </mxCell>
        <mxCell id="M4fMpMwqK3yh5M_hbPdH-552" style="edgeStyle=orthogonalEdgeStyle;rounded=0;sketch=1;hachureGap=4;jiggle=2;curveFitting=1;orthogonalLoop=1;jettySize=auto;html=1;exitX=1;exitY=0.5;exitDx=0;exitDy=0;fontFamily=Architects Daughter;fontSource=https%3A%2F%2Ffonts.googleapis.com%2Fcss%3Ffamily%3DArchitects%2BDaughter;fontSize=16;" edge="1" parent="1" source="M4fMpMwqK3yh5M_hbPdH-550">
          <mxGeometry relative="1" as="geometry">
            <mxPoint x="800" y="1075.7142857142858" as="targetPoint" />
          </mxGeometry>
        </mxCell>
        <mxCell id="M4fMpMwqK3yh5M_hbPdH-550" value="&lt;b&gt;the &quot;BondingVotes&quot; contract&lt;/b&gt;" style="shape=module;align=left;spacingLeft=2;align=center;verticalAlign=middle;whiteSpace=wrap;html=1;sketch=1;hachureGap=4;jiggle=2;curveFitting=1;fontFamily=Architects Daughter;fontSource=https%3A%2F%2Ffonts.googleapis.com%2Fcss%3Ffamily%3DArchitects%2BDaughter;fontSize=20;fillColor=#B5739D;strokeColor=#00FF00;spacingTop=8;spacingRight=12;fontStyle=4;rounded=0;" vertex="1" parent="1">
          <mxGeometry x="380" y="1037.51" width="240" height="74.99" as="geometry" />
        </mxCell>
        <mxCell id="M4fMpMwqK3yh5M_hbPdH-551" value="&lt;font style=&quot;font-size: 81px;&quot;&gt;í ½í³„&lt;/font&gt;" style="text;html=1;strokeColor=none;fillColor=none;align=center;verticalAlign=middle;whiteSpace=wrap;rounded=0;fontSize=20;fontFamily=Architects Daughter;" vertex="1" parent="1">
          <mxGeometry x="452.5" y="912" width="95" height="93" as="geometry" />
        </mxCell>
        <mxCell id="M4fMpMwqK3yh5M_hbPdH-553" value="&lt;font color=&quot;#00ff00&quot;&gt;&lt;b&gt;&lt;font style=&quot;font-size: 24px;&quot;&gt;is used as&lt;/font&gt;&lt;br&gt;&lt;/b&gt;&lt;/font&gt;" style="text;html=1;strokeColor=none;fillColor=none;align=center;verticalAlign=middle;whiteSpace=wrap;rounded=0;fontSize=20;fontFamily=Architects Daughter;" vertex="1" parent="1">
          <mxGeometry x="650" y="1030" width="131" height="40" as="geometry" />
        </mxCell>
        <mxCell id="M4fMpMwqK3yh5M_hbPdH-554" value="" style="html=1;shadow=0;dashed=0;align=center;verticalAlign=middle;shape=mxgraph.arrows2.arrow;dy=0.6;dx=40;direction=south;notch=0;sketch=1;hachureGap=4;jiggle=2;curveFitting=1;fontFamily=Architects Daughter;fontSource=https%3A%2F%2Ffonts.googleapis.com%2Fcss%3Ffamily%3DArchitects%2BDaughter;fontSize=20;fillColor=#f0a30a;fontColor=#000000;strokeColor=#BD7000;" vertex="1" parent="1">
          <mxGeometry x="-567.5" y="1150" width="75" height="185" as="geometry" />
        </mxCell>
        <mxCell id="M4fMpMwqK3yh5M_hbPdH-555" value="&lt;font color=&quot;#000000&quot; style=&quot;font-size: 19px;&quot;&gt;&lt;b&gt;Function &quot;&lt;code style=&quot;border: 0px solid rgb(217, 217, 227); box-sizing: border-box; --tw-border-spacing-x: 0; --tw-border-spacing-y: 0; --tw-translate-x: 0; --tw-translate-y: 0; --tw-rotate: 0; --tw-skew-x: 0; --tw-skew-y: 0; --tw-scale-x: 1; --tw-scale-y: 1; --tw-pan-x: ; --tw-pan-y: ; --tw-pinch-zoom: ; --tw-scroll-snap-strictness: proximity; --tw-gradient-from-position: ; --tw-gradient-via-position: ; --tw-gradient-to-position: ; --tw-ordinal: ; --tw-slashed-zero: ; --tw-numeric-figure: ; --tw-numeric-spacing: ; --tw-numeric-fraction: ; --tw-ring-inset: ; --tw-ring-offset-width: 0px; --tw-ring-offset-color: #fff; --tw-ring-color: rgba(69,89,164,.5); --tw-ring-offset-shadow: 0 0 transparent; --tw-ring-shadow: 0 0 transparent; --tw-shadow: 0 0 transparent; --tw-shadow-colored: 0 0 transparent; --tw-blur: ; --tw-brightness: ; --tw-contrast: ; --tw-grayscale: ; --tw-hue-rotate: ; --tw-invert: ; --tw-saturate: ; --tw-sepia: ; --tw-drop-shadow: ; --tw-backdrop-blur: ; --tw-backdrop-brightness: ; --tw-backdrop-contrast: ; --tw-backdrop-grayscale: ; --tw-backdrop-hue-rotate: ; --tw-backdrop-invert: ; --tw-backdrop-opacity: ; --tw-backdrop-saturate: ; --tw-backdrop-sepia: ; font-family: &amp;quot;SÃ¶hne Mono&amp;quot;, Monaco, &amp;quot;Andale Mono&amp;quot;, &amp;quot;Ubuntu Mono&amp;quot;, monospace !important; font-size: 18px;&quot;&gt;bumpGovernorVotesTokenAddress&quot;&lt;/code&gt;&lt;/b&gt;&lt;/font&gt;" style="text;html=1;strokeColor=#005700;fillColor=#008a00;align=center;verticalAlign=middle;whiteSpace=wrap;rounded=0;fontSize=20;fontFamily=Architects Daughter;sketch=1;curveFitting=1;jiggle=2;fontColor=#ffffff;" vertex="1" parent="1">
          <mxGeometry x="-680" y="1350" width="300" height="90" as="geometry" />
        </mxCell>
        <mxCell id="M4fMpMwqK3yh5M_hbPdH-556" value="" style="shape=flexArrow;endArrow=classic;html=1;rounded=0;sketch=1;hachureGap=4;jiggle=2;curveFitting=1;fontFamily=Architects Daughter;fontSource=https%3A%2F%2Ffonts.googleapis.com%2Fcss%3Ffamily%3DArchitects%2BDaughter;fontSize=16;fillColor=#e51400;strokeColor=#B20000;" edge="1" parent="1">
          <mxGeometry width="50" height="50" relative="1" as="geometry">
            <mxPoint x="-364.5" y="1400" as="sourcePoint" />
            <mxPoint x="-204.5" y="1400" as="targetPoint" />
          </mxGeometry>
        </mxCell>
        <mxCell id="M4fMpMwqK3yh5M_hbPdH-558" style="edgeStyle=orthogonalEdgeStyle;rounded=0;sketch=1;hachureGap=4;jiggle=2;curveFitting=1;orthogonalLoop=1;jettySize=auto;html=1;exitX=1;exitY=0.5;exitDx=0;exitDy=0;fontFamily=Architects Daughter;fontSource=https%3A%2F%2Ffonts.googleapis.com%2Fcss%3Ffamily%3DArchitects%2BDaughter;fontSize=16;" edge="1" parent="1" source="M4fMpMwqK3yh5M_hbPdH-557">
          <mxGeometry relative="1" as="geometry">
            <mxPoint x="200" y="1394.2857142857144" as="targetPoint" />
          </mxGeometry>
        </mxCell>
        <mxCell id="M4fMpMwqK3yh5M_hbPdH-557" value="&lt;b&gt;&lt;font style=&quot;font-size: 25px;&quot;&gt; This function allows&lt;/font&gt;&lt;/b&gt;" style="text;html=1;strokeColor=none;fillColor=none;align=center;verticalAlign=middle;whiteSpace=wrap;rounded=0;fontSize=20;fontFamily=Architects Daughter;" vertex="1" parent="1">
          <mxGeometry x="-200" y="1355.31" width="200" height="79.38" as="geometry" />
        </mxCell>
        <mxCell id="M4fMpMwqK3yh5M_hbPdH-559" value="&lt;font color=&quot;#00ff00&quot;&gt;&lt;b&gt;UPDATING&lt;br&gt;&lt;/b&gt;&lt;/font&gt;" style="text;html=1;strokeColor=none;fillColor=none;align=center;verticalAlign=middle;whiteSpace=wrap;rounded=0;fontSize=20;fontFamily=Architects Daughter;" vertex="1" parent="1">
          <mxGeometry x="30" y="1350" width="131" height="40" as="geometry" />
        </mxCell>
        <mxCell id="M4fMpMwqK3yh5M_hbPdH-560" value="" style="shape=singleArrow;whiteSpace=wrap;html=1;arrowWidth=0.4;arrowSize=0.4;fontSize=20;fontFamily=Architects Daughter;fillColor=#e3c800;strokeColor=#B09500;rounded=0;sketch=1;hachureGap=4;jiggle=2;curveFitting=1;fontSource=https%3A%2F%2Ffonts.googleapis.com%2Fcss%3Ffamily%3DArchitects%2BDaughter;fontColor=#000000;" vertex="1" parent="1">
          <mxGeometry x="588.25" y="1364.685" width="80" height="60" as="geometry" />
        </mxCell>
        <mxCell id="M4fMpMwqK3yh5M_hbPdH-562" value="&lt;font color=&quot;#00ff00&quot; style=&quot;font-size: 22px;&quot;&gt;&lt;b&gt; It is used to&lt;/b&gt;&lt;/font&gt;&lt;font color=&quot;#00ff00&quot;&gt;&lt;b&gt;&lt;br&gt;&lt;/b&gt;&lt;/font&gt;" style="text;html=1;strokeColor=none;fillColor=none;align=center;verticalAlign=middle;whiteSpace=wrap;rounded=0;fontSize=20;fontFamily=Architects Daughter;" vertex="1" parent="1">
          <mxGeometry x="452.5" y="1350" width="131" height="40" as="geometry" />
        </mxCell>
        <mxCell id="M4fMpMwqK3yh5M_hbPdH-563" value="" style="html=1;shadow=0;dashed=0;align=center;verticalAlign=middle;shape=mxgraph.arrows2.arrow;dy=0.6;dx=40;direction=south;notch=0;sketch=1;hachureGap=4;jiggle=2;curveFitting=1;fontFamily=Architects Daughter;fontSource=https%3A%2F%2Ffonts.googleapis.com%2Fcss%3Ffamily%3DArchitects%2BDaughter;fontSize=20;fillColor=#f0a30a;fontColor=#000000;strokeColor=#BD7000;" vertex="1" parent="1">
          <mxGeometry x="-567.5" y="1465" width="75" height="185" as="geometry" />
        </mxCell>
        <mxCell id="M4fMpMwqK3yh5M_hbPdH-564" value="&lt;font color=&quot;#000000&quot; style=&quot;font-size: 30px;&quot;&gt;&lt;b&gt;Function &lt;code style=&quot;border: 0px solid rgb(217, 217, 227); box-sizing: border-box; --tw-border-spacing-x: 0; --tw-border-spacing-y: 0; --tw-translate-x: 0; --tw-translate-y: 0; --tw-rotate: 0; --tw-skew-x: 0; --tw-skew-y: 0; --tw-scale-x: 1; --tw-scale-y: 1; --tw-pan-x: ; --tw-pan-y: ; --tw-pinch-zoom: ; --tw-scroll-snap-strictness: proximity; --tw-gradient-from-position: ; --tw-gradient-via-position: ; --tw-gradient-to-position: ; --tw-ordinal: ; --tw-slashed-zero: ; --tw-numeric-figure: ; --tw-numeric-spacing: ; --tw-numeric-fraction: ; --tw-ring-inset: ; --tw-ring-offset-width: 0px; --tw-ring-offset-color: #fff; --tw-ring-color: rgba(69,89,164,.5); --tw-ring-offset-shadow: 0 0 transparent; --tw-ring-shadow: 0 0 transparent; --tw-shadow: 0 0 transparent; --tw-shadow-colored: 0 0 transparent; --tw-blur: ; --tw-brightness: ; --tw-contrast: ; --tw-grayscale: ; --tw-hue-rotate: ; --tw-invert: ; --tw-saturate: ; --tw-sepia: ; --tw-drop-shadow: ; --tw-backdrop-blur: ; --tw-backdrop-brightness: ; --tw-backdrop-contrast: ; --tw-backdrop-grayscale: ; --tw-backdrop-hue-rotate: ; --tw-backdrop-invert: ; --tw-backdrop-opacity: ; --tw-backdrop-saturate: ; --tw-backdrop-sepia: ; font-family: &amp;quot;SÃ¶hne Mono&amp;quot;, Monaco, &amp;quot;Andale Mono&amp;quot;, &amp;quot;Ubuntu Mono&amp;quot;, monospace !important;&quot;&gt;bondingVotes&lt;/code&gt;&lt;/b&gt;&lt;/font&gt;" style="text;html=1;strokeColor=#005700;fillColor=#008a00;align=center;verticalAlign=middle;whiteSpace=wrap;rounded=0;fontSize=20;fontFamily=Architects Daughter;sketch=1;curveFitting=1;jiggle=2;fontColor=#ffffff;" vertex="1" parent="1">
          <mxGeometry x="-680" y="1680" width="300" height="90" as="geometry" />
        </mxCell>
        <mxCell id="M4fMpMwqK3yh5M_hbPdH-565" value="" style="shape=flexArrow;endArrow=classic;html=1;rounded=0;sketch=1;hachureGap=4;jiggle=2;curveFitting=1;fontFamily=Architects Daughter;fontSource=https%3A%2F%2Ffonts.googleapis.com%2Fcss%3Ffamily%3DArchitects%2BDaughter;fontSize=16;fillColor=#e51400;strokeColor=#B20000;" edge="1" parent="1">
          <mxGeometry width="50" height="50" relative="1" as="geometry">
            <mxPoint x="-364.5" y="1724" as="sourcePoint" />
            <mxPoint x="-204.5" y="1724" as="targetPoint" />
          </mxGeometry>
        </mxCell>
        <mxCell id="M4fMpMwqK3yh5M_hbPdH-566" value="&lt;font color=&quot;#00ff00&quot;&gt;&lt;b&gt;RETURNS&lt;br&gt;&lt;/b&gt;&lt;/font&gt;" style="text;html=1;strokeColor=none;fillColor=none;align=center;verticalAlign=middle;whiteSpace=wrap;rounded=0;fontSize=20;fontFamily=Architects Daughter;" vertex="1" parent="1">
          <mxGeometry x="-350" y="1670" width="131" height="40" as="geometry" />
        </mxCell>
        <mxCell id="M4fMpMwqK3yh5M_hbPdH-569" value="" style="edgeStyle=orthogonalEdgeStyle;rounded=0;sketch=1;hachureGap=4;jiggle=2;curveFitting=1;orthogonalLoop=1;jettySize=auto;html=1;fontFamily=Architects Daughter;fontSource=https%3A%2F%2Ffonts.googleapis.com%2Fcss%3Ffamily%3DArchitects%2BDaughter;fontSize=16;" edge="1" parent="1" source="M4fMpMwqK3yh5M_hbPdH-567" target="M4fMpMwqK3yh5M_hbPdH-568">
          <mxGeometry relative="1" as="geometry" />
        </mxCell>
        <mxCell id="M4fMpMwqK3yh5M_hbPdH-567" value="&lt;b&gt;The address of the &quot;BondingVotes&quot; contract&lt;/b&gt;" style="whiteSpace=wrap;html=1;shape=mxgraph.basic.cloud_rect;sketch=1;hachureGap=4;jiggle=2;curveFitting=1;fontFamily=Architects Daughter;fontSource=https%3A%2F%2Ffonts.googleapis.com%2Fcss%3Ffamily%3DArchitects%2BDaughter;fontSize=20;fillColor=#e3c800;fontColor=#000000;strokeColor=#B09500;" vertex="1" parent="1">
          <mxGeometry x="-190" y="1694.38" width="285.5" height="61.25" as="geometry" />
        </mxCell>
        <mxCell id="M4fMpMwqK3yh5M_hbPdH-568" value="" style="shape=singleArrow;whiteSpace=wrap;html=1;arrowWidth=0.4;arrowSize=0.4;fontSize=20;fontFamily=Architects Daughter;fillColor=#B5739D;strokeColor=#00FF00;fontColor=default;sketch=1;hachureGap=4;jiggle=2;curveFitting=1;fontSource=https%3A%2F%2Ffonts.googleapis.com%2Fcss%3Ffamily%3DArchitects%2BDaughter;rounded=0;" vertex="1" parent="1">
          <mxGeometry x="278.25" y="1695.005" width="80" height="60" as="geometry" />
        </mxCell>
        <mxCell id="M4fMpMwqK3yh5M_hbPdH-570" value="&lt;font color=&quot;#00ff00&quot;&gt;&lt;b&gt;FROM&lt;br&gt;&lt;/b&gt;&lt;/font&gt;" style="text;html=1;strokeColor=none;fillColor=none;align=center;verticalAlign=middle;whiteSpace=wrap;rounded=0;fontSize=20;fontFamily=Architects Daughter;" vertex="1" parent="1">
          <mxGeometry x="120" y="1680" width="131" height="40" as="geometry" />
        </mxCell>
        <mxCell id="M4fMpMwqK3yh5M_hbPdH-572" style="edgeStyle=orthogonalEdgeStyle;rounded=0;sketch=1;hachureGap=4;jiggle=2;curveFitting=1;orthogonalLoop=1;jettySize=auto;html=1;exitX=0;exitY=0;exitDx=30;exitDy=0;exitPerimeter=0;fontFamily=Architects Daughter;fontSource=https%3A%2F%2Ffonts.googleapis.com%2Fcss%3Ffamily%3DArchitects%2BDaughter;fontSize=16;" edge="1" parent="1" source="M4fMpMwqK3yh5M_hbPdH-571">
          <mxGeometry relative="1" as="geometry">
            <mxPoint x="680" y="1714.3333333333335" as="targetPoint" />
          </mxGeometry>
        </mxCell>
        <mxCell id="M4fMpMwqK3yh5M_hbPdH-571" value="&lt;b&gt;The controller&lt;/b&gt;" style="verticalAlign=middle;align=center;spacingTop=8;spacingLeft=2;spacingRight=12;shape=cube;size=10;direction=south;fontStyle=4;html=1;whiteSpace=wrap;sketch=1;hachureGap=4;jiggle=2;curveFitting=1;fontFamily=Architects Daughter;fontSource=https%3A%2F%2Ffonts.googleapis.com%2Fcss%3Ffamily%3DArchitects%2BDaughter;fontSize=20;fillColor=#B5739D;strokeColor=#00FF00;rounded=0;" vertex="1" parent="1">
          <mxGeometry x="373" y="1684" width="177" height="70" as="geometry" />
        </mxCell>
        <mxCell id="M4fMpMwqK3yh5M_hbPdH-583" style="edgeStyle=orthogonalEdgeStyle;rounded=0;sketch=1;hachureGap=4;jiggle=2;curveFitting=1;orthogonalLoop=1;jettySize=auto;html=1;exitX=0.5;exitY=0;exitDx=0;exitDy=0;entryX=0.5;entryY=0;entryDx=0;entryDy=0;fontFamily=Architects Daughter;fontSource=https%3A%2F%2Ffonts.googleapis.com%2Fcss%3Ffamily%3DArchitects%2BDaughter;fontSize=16;" edge="1" parent="1" source="M4fMpMwqK3yh5M_hbPdH-573" target="M4fMpMwqK3yh5M_hbPdH-564">
          <mxGeometry relative="1" as="geometry" />
        </mxCell>
        <mxCell id="M4fMpMwqK3yh5M_hbPdH-585" style="edgeStyle=orthogonalEdgeStyle;rounded=0;sketch=1;hachureGap=4;jiggle=2;curveFitting=1;orthogonalLoop=1;jettySize=auto;html=1;exitX=0.5;exitY=1;exitDx=0;exitDy=0;fontFamily=Architects Daughter;fontSource=https%3A%2F%2Ffonts.googleapis.com%2Fcss%3Ffamily%3DArchitects%2BDaughter;fontSize=16;" edge="1" parent="1" source="M4fMpMwqK3yh5M_hbPdH-573">
          <mxGeometry relative="1" as="geometry">
            <mxPoint x="616.6666666666665" y="1710" as="targetPoint" />
          </mxGeometry>
        </mxCell>
        <mxCell id="M4fMpMwqK3yh5M_hbPdH-573" value="&lt;font color=&quot;#00ff00&quot;&gt;&lt;font style=&quot;font-size: 23px;&quot;&gt;&lt;b&gt;This contract &lt;/b&gt;&lt;/font&gt;&lt;b&gt;&lt;br&gt;&lt;/b&gt;&lt;/font&gt;" style="text;html=1;strokeColor=none;fillColor=none;align=center;verticalAlign=middle;whiteSpace=wrap;rounded=0;fontSize=20;fontFamily=Architects Daughter;" vertex="1" parent="1">
          <mxGeometry x="545.5" y="1660" width="142.5" height="40" as="geometry" />
        </mxCell>
        <mxCell id="M4fMpMwqK3yh5M_hbPdH-574" value="&lt;b&gt;Is used to manage governance votes&lt;/b&gt;" style="whiteSpace=wrap;html=1;shape=mxgraph.basic.cloud_rect;sketch=1;hachureGap=4;jiggle=2;curveFitting=1;fontFamily=Architects Daughter;fontSource=https%3A%2F%2Ffonts.googleapis.com%2Fcss%3Ffamily%3DArchitects%2BDaughter;fontSize=20;fillColor=#e3c800;fontColor=#000000;strokeColor=#B09500;" vertex="1" parent="1">
          <mxGeometry x="710" y="1664" width="180" height="110" as="geometry" />
        </mxCell>
        <mxCell id="M4fMpMwqK3yh5M_hbPdH-575" value="" style="html=1;shadow=0;dashed=0;align=center;verticalAlign=middle;shape=mxgraph.arrows2.arrow;dy=0.6;dx=40;direction=south;notch=0;sketch=1;hachureGap=4;jiggle=2;curveFitting=1;fontFamily=Architects Daughter;fontSource=https%3A%2F%2Ffonts.googleapis.com%2Fcss%3Ffamily%3DArchitects%2BDaughter;fontSize=20;fillColor=#f0a30a;fontColor=#000000;strokeColor=#BD7000;" vertex="1" parent="1">
          <mxGeometry x="-567.5" y="1810" width="75" height="185" as="geometry" />
        </mxCell>
        <mxCell id="M4fMpMwqK3yh5M_hbPdH-576" value="&lt;font color=&quot;#000000&quot; style=&quot;font-size: 30px;&quot;&gt;&lt;b&gt;Function &lt;code style=&quot;border: 0px solid rgb(217, 217, 227); box-sizing: border-box; --tw-border-spacing-x: 0; --tw-border-spacing-y: 0; --tw-translate-x: 0; --tw-translate-y: 0; --tw-rotate: 0; --tw-skew-x: 0; --tw-skew-y: 0; --tw-scale-x: 1; --tw-scale-y: 1; --tw-pan-x: ; --tw-pan-y: ; --tw-pinch-zoom: ; --tw-scroll-snap-strictness: proximity; --tw-gradient-from-position: ; --tw-gradient-via-position: ; --tw-gradient-to-position: ; --tw-ordinal: ; --tw-slashed-zero: ; --tw-numeric-figure: ; --tw-numeric-spacing: ; --tw-numeric-fraction: ; --tw-ring-inset: ; --tw-ring-offset-width: 0px; --tw-ring-offset-color: #fff; --tw-ring-color: rgba(69,89,164,.5); --tw-ring-offset-shadow: 0 0 transparent; --tw-ring-shadow: 0 0 transparent; --tw-shadow: 0 0 transparent; --tw-shadow-colored: 0 0 transparent; --tw-blur: ; --tw-brightness: ; --tw-contrast: ; --tw-grayscale: ; --tw-hue-rotate: ; --tw-invert: ; --tw-saturate: ; --tw-sepia: ; --tw-drop-shadow: ; --tw-backdrop-blur: ; --tw-backdrop-brightness: ; --tw-backdrop-contrast: ; --tw-backdrop-grayscale: ; --tw-backdrop-hue-rotate: ; --tw-backdrop-invert: ; --tw-backdrop-opacity: ; --tw-backdrop-saturate: ; --tw-backdrop-sepia: ; font-family: &amp;quot;SÃ¶hne Mono&amp;quot;, Monaco, &amp;quot;Andale Mono&amp;quot;, &amp;quot;Ubuntu Mono&amp;quot;, monospace !important;&quot;&gt;treasury&lt;/code&gt;&lt;/b&gt;&lt;/font&gt;" style="text;html=1;strokeColor=#005700;fillColor=#008a00;align=center;verticalAlign=middle;whiteSpace=wrap;rounded=0;fontSize=20;fontFamily=Architects Daughter;sketch=1;curveFitting=1;jiggle=2;fontColor=#ffffff;" vertex="1" parent="1">
          <mxGeometry x="-680" y="2020" width="300" height="90" as="geometry" />
        </mxCell>
        <mxCell id="M4fMpMwqK3yh5M_hbPdH-577" value="" style="shape=flexArrow;endArrow=classic;html=1;rounded=0;sketch=1;hachureGap=4;jiggle=2;curveFitting=1;fontFamily=Architects Daughter;fontSource=https%3A%2F%2Ffonts.googleapis.com%2Fcss%3Ffamily%3DArchitects%2BDaughter;fontSize=16;fillColor=#e51400;strokeColor=#B20000;" edge="1" parent="1">
          <mxGeometry width="50" height="50" relative="1" as="geometry">
            <mxPoint x="-370" y="2064.33" as="sourcePoint" />
            <mxPoint x="-210" y="2064.33" as="targetPoint" />
          </mxGeometry>
        </mxCell>
        <mxCell id="M4fMpMwqK3yh5M_hbPdH-578" value="&lt;font color=&quot;#00ff00&quot;&gt;&lt;b&gt;RETURNS&lt;br&gt;&lt;/b&gt;&lt;/font&gt;" style="text;html=1;strokeColor=none;fillColor=none;align=center;verticalAlign=middle;whiteSpace=wrap;rounded=0;fontSize=20;fontFamily=Architects Daughter;" vertex="1" parent="1">
          <mxGeometry x="-350" y="2020" width="131" height="40" as="geometry" />
        </mxCell>
        <mxCell id="M4fMpMwqK3yh5M_hbPdH-581" value="" style="edgeStyle=orthogonalEdgeStyle;rounded=0;sketch=1;hachureGap=4;jiggle=2;curveFitting=1;orthogonalLoop=1;jettySize=auto;html=1;fontFamily=Architects Daughter;fontSource=https%3A%2F%2Ffonts.googleapis.com%2Fcss%3Ffamily%3DArchitects%2BDaughter;fontSize=16;" edge="1" parent="1" source="M4fMpMwqK3yh5M_hbPdH-579" target="M4fMpMwqK3yh5M_hbPdH-580">
          <mxGeometry relative="1" as="geometry" />
        </mxCell>
        <mxCell id="M4fMpMwqK3yh5M_hbPdH-579" value="&lt;b&gt;The address of the &quot;Treasury&quot; contract&lt;/b&gt;" style="whiteSpace=wrap;html=1;shape=mxgraph.basic.cloud_rect;sketch=1;hachureGap=4;jiggle=2;curveFitting=1;fontFamily=Architects Daughter;fontSource=https%3A%2F%2Ffonts.googleapis.com%2Fcss%3Ffamily%3DArchitects%2BDaughter;fontSize=20;fillColor=#e3c800;fontColor=#000000;strokeColor=#B09500;" vertex="1" parent="1">
          <mxGeometry x="-190" y="2034.3700000000001" width="285.5" height="61.25" as="geometry" />
        </mxCell>
        <mxCell id="M4fMpMwqK3yh5M_hbPdH-580" value="" style="shape=singleArrow;whiteSpace=wrap;html=1;arrowWidth=0.4;arrowSize=0.4;fontSize=20;fontFamily=Architects Daughter;fillColor=#B5739D;strokeColor=#00FF00;fontColor=default;sketch=1;hachureGap=4;jiggle=2;curveFitting=1;fontSource=https%3A%2F%2Ffonts.googleapis.com%2Fcss%3Ffamily%3DArchitects%2BDaughter;rounded=0;" vertex="1" parent="1">
          <mxGeometry x="278.25" y="2034.995" width="80" height="60" as="geometry" />
        </mxCell>
        <mxCell id="M4fMpMwqK3yh5M_hbPdH-586" style="edgeStyle=orthogonalEdgeStyle;rounded=0;sketch=1;hachureGap=4;jiggle=2;curveFitting=1;orthogonalLoop=1;jettySize=auto;html=1;exitX=0;exitY=0;exitDx=30;exitDy=0;exitPerimeter=0;fontFamily=Architects Daughter;fontSource=https%3A%2F%2Ffonts.googleapis.com%2Fcss%3Ffamily%3DArchitects%2BDaughter;fontSize=16;" edge="1" parent="1" source="M4fMpMwqK3yh5M_hbPdH-582">
          <mxGeometry relative="1" as="geometry">
            <mxPoint x="740" y="2054.3333333333335" as="targetPoint" />
          </mxGeometry>
        </mxCell>
        <mxCell id="M4fMpMwqK3yh5M_hbPdH-582" value="&lt;b&gt;The controller&lt;/b&gt;" style="verticalAlign=middle;align=center;spacingTop=8;spacingLeft=2;spacingRight=12;shape=cube;size=10;direction=south;fontStyle=4;html=1;whiteSpace=wrap;sketch=1;hachureGap=4;jiggle=2;curveFitting=1;fontFamily=Architects Daughter;fontSource=https%3A%2F%2Ffonts.googleapis.com%2Fcss%3Ffamily%3DArchitects%2BDaughter;fontSize=20;fillColor=#B5739D;strokeColor=#00FF00;rounded=0;" vertex="1" parent="1">
          <mxGeometry x="373" y="2024.99" width="177" height="70" as="geometry" />
        </mxCell>
        <mxCell id="M4fMpMwqK3yh5M_hbPdH-587" value="&lt;font color=&quot;#00ff00&quot;&gt;&lt;font style=&quot;font-size: 22px;&quot;&gt;&lt;b&gt;The &quot;Treasury&quot; contract&lt;/b&gt;&lt;/font&gt;&lt;b&gt;&lt;br&gt;&lt;/b&gt;&lt;/font&gt;" style="text;html=1;strokeColor=none;fillColor=none;align=center;verticalAlign=middle;whiteSpace=wrap;rounded=0;fontSize=20;fontFamily=Architects Daughter;" vertex="1" parent="1">
          <mxGeometry x="567.5" y="1984.99" width="142.5" height="40" as="geometry" />
        </mxCell>
        <mxCell id="M4fMpMwqK3yh5M_hbPdH-588" value="&lt;b&gt;is used to manage treasury funds and governance proposals.&lt;/b&gt;" style="whiteSpace=wrap;html=1;shape=mxgraph.basic.cloud_rect;sketch=1;hachureGap=4;jiggle=2;curveFitting=1;fontFamily=Architects Daughter;fontSource=https%3A%2F%2Ffonts.googleapis.com%2Fcss%3Ffamily%3DArchitects%2BDaughter;fontSize=20;fillColor=#e3c800;fontColor=#000000;strokeColor=#B09500;" vertex="1" parent="1">
          <mxGeometry x="760" y="2000" width="180" height="110" as="geometry" />
        </mxCell>
        <mxCell id="M4fMpMwqK3yh5M_hbPdH-589" value="" style="html=1;shadow=0;dashed=0;align=center;verticalAlign=middle;shape=mxgraph.arrows2.arrow;dy=0.6;dx=40;direction=south;notch=0;sketch=1;hachureGap=4;jiggle=2;curveFitting=1;fontFamily=Architects Daughter;fontSource=https%3A%2F%2Ffonts.googleapis.com%2Fcss%3Ffamily%3DArchitects%2BDaughter;fontSize=20;fillColor=#f0a30a;fontColor=#000000;strokeColor=#BD7000;" vertex="1" parent="1">
          <mxGeometry x="-567.5" y="2140" width="75" height="185" as="geometry" />
        </mxCell>
        <mxCell id="M4fMpMwqK3yh5M_hbPdH-590" value="&lt;font color=&quot;#000000&quot; style=&quot;font-size: 30px;&quot;&gt;&lt;b&gt;Inherited Functions&lt;/b&gt;&lt;/font&gt;" style="text;html=1;strokeColor=#005700;fillColor=#008a00;align=center;verticalAlign=middle;whiteSpace=wrap;rounded=0;fontSize=20;fontFamily=Architects Daughter;sketch=1;curveFitting=1;jiggle=2;fontColor=#ffffff;" vertex="1" parent="1">
          <mxGeometry x="-680" y="2360" width="300" height="90" as="geometry" />
        </mxCell>
        <mxCell id="M4fMpMwqK3yh5M_hbPdH-591" value="" style="shape=flexArrow;endArrow=classic;html=1;rounded=0;sketch=1;hachureGap=4;jiggle=2;curveFitting=1;fontFamily=Architects Daughter;fontSource=https%3A%2F%2Ffonts.googleapis.com%2Fcss%3Ffamily%3DArchitects%2BDaughter;fontSize=16;fillColor=#e51400;strokeColor=#B20000;" edge="1" parent="1">
          <mxGeometry width="50" height="50" relative="1" as="geometry">
            <mxPoint x="-364.5" y="2404.33" as="sourcePoint" />
            <mxPoint x="-204.5" y="2404.33" as="targetPoint" />
          </mxGeometry>
        </mxCell>
        <mxCell id="M4fMpMwqK3yh5M_hbPdH-593" style="edgeStyle=orthogonalEdgeStyle;rounded=0;sketch=1;hachureGap=4;jiggle=2;curveFitting=1;orthogonalLoop=1;jettySize=auto;html=1;exitX=1;exitY=0.5;exitDx=0;exitDy=0;fontFamily=Architects Daughter;fontSource=https%3A%2F%2Ffonts.googleapis.com%2Fcss%3Ffamily%3DArchitects%2BDaughter;fontSize=16;" edge="1" parent="1" source="M4fMpMwqK3yh5M_hbPdH-592">
          <mxGeometry relative="1" as="geometry">
            <mxPoint x="320" y="2405" as="targetPoint" />
          </mxGeometry>
        </mxCell>
        <mxCell id="M4fMpMwqK3yh5M_hbPdH-592" value="&lt;b&gt;&lt;font style=&quot;font-size: 25px;&quot;&gt;The contract inherits functions&lt;/font&gt;&lt;/b&gt;" style="text;html=1;strokeColor=none;fillColor=none;align=center;verticalAlign=middle;whiteSpace=wrap;rounded=0;fontSize=20;fontFamily=Architects Daughter;" vertex="1" parent="1">
          <mxGeometry x="-190" y="2365.31" width="305.5" height="79.38" as="geometry" />
        </mxCell>
        <mxCell id="M4fMpMwqK3yh5M_hbPdH-594" value="&lt;font color=&quot;#00ff00&quot;&gt;&lt;b&gt;FROM&lt;br&gt;&lt;/b&gt;&lt;/font&gt;" style="text;html=1;strokeColor=none;fillColor=none;align=center;verticalAlign=middle;whiteSpace=wrap;rounded=0;fontSize=20;fontFamily=Architects Daughter;" vertex="1" parent="1">
          <mxGeometry x="170" y="2360" width="131" height="40" as="geometry" />
        </mxCell>
        <mxCell id="M4fMpMwqK3yh5M_hbPdH-600" value="" style="edgeStyle=orthogonalEdgeStyle;rounded=0;sketch=1;hachureGap=4;jiggle=2;curveFitting=1;orthogonalLoop=1;jettySize=auto;html=1;fontFamily=Architects Daughter;fontSource=https%3A%2F%2Ffonts.googleapis.com%2Fcss%3Ffamily%3DArchitects%2BDaughter;fontSize=16;" edge="1" parent="1" source="M4fMpMwqK3yh5M_hbPdH-595" target="M4fMpMwqK3yh5M_hbPdH-599">
          <mxGeometry relative="1" as="geometry" />
        </mxCell>
        <mxCell id="M4fMpMwqK3yh5M_hbPdH-595" value="&lt;b&gt;Various OpenZeppelin extensions &lt;/b&gt;" style="whiteSpace=wrap;html=1;shape=mxgraph.basic.cloud_rect;sketch=1;hachureGap=4;jiggle=2;curveFitting=1;fontFamily=Architects Daughter;fontSource=https%3A%2F%2Ffonts.googleapis.com%2Fcss%3Ffamily%3DArchitects%2BDaughter;fontSize=20;fillColor=#e3c800;fontColor=#000000;strokeColor=#B09500;" vertex="1" parent="1">
          <mxGeometry x="331" y="2374.38" width="285.5" height="61.25" as="geometry" />
        </mxCell>
        <mxCell id="M4fMpMwqK3yh5M_hbPdH-596" value="&lt;img alt=&quot;openzeppelin_logo&quot; src=&quot;https://7795250.fs1.hubspotusercontent-na1.net/hubfs/7795250/openzeppelin_logo.svg&quot;&gt;&lt;font color=&quot;#00ff00&quot;&gt;&lt;b&gt;&lt;br&gt;&lt;/b&gt;&lt;/font&gt;" style="text;html=1;strokeColor=none;fillColor=none;align=center;verticalAlign=middle;whiteSpace=wrap;rounded=0;fontSize=20;fontFamily=Architects Daughter;" vertex="1" parent="1">
          <mxGeometry x="387.75" y="2294.38" width="172" height="40" as="geometry" />
        </mxCell>
        <mxCell id="M4fMpMwqK3yh5M_hbPdH-598" value="" style="edgeStyle=orthogonalEdgeStyle;rounded=0;sketch=1;hachureGap=4;jiggle=2;curveFitting=1;orthogonalLoop=1;jettySize=auto;html=1;fontFamily=Architects Daughter;fontSource=https%3A%2F%2Ffonts.googleapis.com%2Fcss%3Ffamily%3DArchitects%2BDaughter;fontSize=16;" edge="1" parent="1" source="M4fMpMwqK3yh5M_hbPdH-597" target="M4fMpMwqK3yh5M_hbPdH-595">
          <mxGeometry relative="1" as="geometry" />
        </mxCell>
        <mxCell id="M4fMpMwqK3yh5M_hbPdH-597" value="&lt;font color=&quot;#00ff00&quot;&gt;&lt;b&gt;&lt;font style=&quot;font-size: 24px;&quot;&gt;used to &lt;/font&gt;&lt;br&gt;&lt;/b&gt;&lt;/font&gt;" style="text;html=1;strokeColor=none;fillColor=none;align=center;verticalAlign=middle;whiteSpace=wrap;rounded=0;fontSize=20;fontFamily=Architects Daughter;" vertex="1" parent="1">
          <mxGeometry x="408.25" y="2334.38" width="131" height="40" as="geometry" />
        </mxCell>
        <mxCell id="M4fMpMwqK3yh5M_hbPdH-599" value="" style="shape=singleArrow;whiteSpace=wrap;html=1;arrowWidth=0.4;arrowSize=0.4;fontSize=20;fontFamily=Architects Daughter;fillColor=#B5739D;strokeColor=#00FF00;fontColor=default;sketch=1;hachureGap=4;jiggle=2;curveFitting=1;fontSource=https%3A%2F%2Ffonts.googleapis.com%2Fcss%3Ffamily%3DArchitects%2BDaughter;spacingTop=8;spacingLeft=2;spacingRight=12;fontStyle=4;rounded=0;" vertex="1" parent="1">
          <mxGeometry x="799.25" y="2375.005" width="80" height="60" as="geometry" />
        </mxCell>
        <mxCell id="M4fMpMwqK3yh5M_hbPdH-601" value="configure governance logic" style="label;whiteSpace=wrap;html=1;image=img/clipart/Gear_128x128.png;sketch=1;hachureGap=4;jiggle=2;curveFitting=1;fontFamily=Architects Daughter;fontSource=https%3A%2F%2Ffonts.googleapis.com%2Fcss%3Ffamily%3DArchitects%2BDaughter;fontSize=20;align=center;fillColor=#e3c800;strokeColor=#B09500;fontColor=#000000;" vertex="1" parent="1">
          <mxGeometry x="900" y="2374.38" width="300" height="59.38" as="geometry" />
        </mxCell>
        <mxCell id="M4fMpMwqK3yh5M_hbPdH-602" value="" style="shape=image;html=1;verticalLabelPosition=bottom;verticalAlign=top;imageAspect=0;image=img/clipart/Gear_128x128.png;sketch=1;hachureGap=4;jiggle=2;curveFitting=1;fontFamily=Architects Daughter;fontSource=https%3A%2F%2Ffonts.googleapis.com%2Fcss%3Ffamily%3DArchitects%2BDaughter;fontSize=20;" vertex="1" parent="1">
          <mxGeometry x="-97.25" y="2185" width="100" height="95" as="geometry" />
        </mxCell>
        <mxCell id="M4fMpMwqK3yh5M_hbPdH-603" value="" style="shape=image;html=1;verticalLabelPosition=bottom;verticalAlign=top;imageAspect=0;image=img/clipart/Gear_128x128.png;sketch=1;hachureGap=4;jiggle=2;curveFitting=1;fontFamily=Architects Daughter;fontSource=https%3A%2F%2Ffonts.googleapis.com%2Fcss%3Ffamily%3DArchitects%2BDaughter;fontSize=20;" vertex="1" parent="1">
          <mxGeometry x="35.5" y="1490" width="100" height="95" as="geometry" />
        </mxCell>
        <mxCell id="M4fMpMwqK3yh5M_hbPdH-604" value="" style="shape=image;html=1;verticalLabelPosition=bottom;verticalAlign=top;imageAspect=0;image=img/clipart/Gear_128x128.png;sketch=1;hachureGap=4;jiggle=2;curveFitting=1;fontFamily=Architects Daughter;fontSource=https%3A%2F%2Ffonts.googleapis.com%2Fcss%3Ffamily%3DArchitects%2BDaughter;fontSize=20;" vertex="1" parent="1">
          <mxGeometry x="-60" y="537" width="100" height="95" as="geometry" />
        </mxCell>
      </root>
    </mxGraphModel>
  </diagram>
</mxfile>
